<?xml version="1.0" encoding="UTF-8"?>
<svg xmlns="http://www.w3.org/2000/svg" xmlns:xlink="http://www.w3.org/1999/xlink" width="324pt" height="324pt" viewBox="0 0 324 324" version="1.1">
<g id="surface71">
<rect x="0" y="0" width="324" height="324" style="fill:rgb(100%,100%,100%);fill-opacity:1;stroke:none;"/>
<path style="fill:none;stroke-width:0.75;stroke-linecap:round;stroke-linejoin:round;stroke:rgb(0%,0%,0%);stroke-opacity:1;stroke-miterlimit:10;" d="M 38.667969 285.332031 L 56.109375 285.332031 L 58.597656 285.328125 L 61.089844 285.328125 L 68.566406 285.316406 L 71.058594 285.304688 L 73.546875 285.292969 L 76.039062 285.273438 L 78.53125 285.246094 L 81.023438 285.207031 L 83.515625 285.152344 L 86.007812 285.078125 L 88.5 284.976562 L 90.988281 284.839844 L 93.480469 284.660156 L 95.972656 284.417969 L 98.464844 284.101562 L 100.957031 283.6875 L 103.449219 283.160156 L 105.9375 282.492188 L 108.429688 281.648438 L 110.921875 280.597656 L 113.414062 279.304688 L 115.90625 277.726562 L 118.398438 275.824219 L 120.890625 273.546875 L 123.378906 270.851562 L 125.871094 267.695312 L 128.363281 264.035156 L 130.855469 259.835938 L 133.347656 255.070312 L 135.839844 249.707031 L 138.328125 243.738281 L 140.820312 237.164062 L 143.3125 229.992188 L 145.804688 222.253906 L 148.296875 213.984375 L 150.789062 205.234375 L 153.28125 196.078125 L 155.769531 186.589844 L 158.261719 176.851562 L 160.753906 166.96875 L 163.246094 157.03125 L 165.738281 147.148438 L 168.230469 137.410156 L 170.71875 127.921875 L 173.210938 118.765625 L 175.703125 110.015625 L 178.195312 101.746094 L 180.6875 94.007812 L 183.179688 86.835938 L 185.671875 80.261719 L 188.160156 74.292969 L 190.652344 68.929688 L 193.144531 64.164062 L 195.636719 59.964844 L 198.128906 56.304688 L 200.621094 53.148438 L 203.109375 50.453125 L 205.601562 48.175781 L 208.09375 46.273438 L 210.585938 44.695312 L 213.078125 43.402344 L 215.570312 42.351562 L 218.0625 41.507812 L 220.550781 40.839844 L 223.042969 40.3125 L 225.535156 39.898438 L 228.027344 39.582031 L 230.519531 39.339844 L 233.011719 39.160156 L 235.5 39.023438 L 237.992188 38.921875 L 240.484375 38.847656 L 242.976562 38.792969 L 245.46875 38.753906 L 247.960938 38.726562 L 250.453125 38.707031 L 252.941406 38.695312 L 255.433594 38.683594 L 262.910156 38.671875 L 265.402344 38.671875 L 267.890625 38.667969 L 285.332031 38.667969 "/>
<path style=" stroke:none;fill-rule:nonzero;fill:rgb(0%,0%,0%);fill-opacity:1;" d="M 163.691406 313.921875 L 161.988281 311.320312 L 160.269531 313.921875 L 159.132812 313.921875 L 161.390625 310.664062 L 159.238281 307.582031 L 160.40625 307.582031 L 161.988281 310.046875 L 163.558594 307.582031 L 164.734375 307.582031 L 162.585938 310.652344 L 164.871094 313.921875 Z M 163.691406 313.921875 "/>
<path style=" stroke:none;fill-rule:nonzero;fill:rgb(0%,0%,0%);fill-opacity:1;" d="M 12.949219 172.46875 L 13.054688 172.46875 L 13.265625 172.484375 L 13.367188 172.496094 L 13.46875 172.511719 L 13.570312 172.53125 L 13.863281 172.613281 L 13.957031 172.648438 L 14.136719 172.726562 L 14.222656 172.769531 L 14.308594 172.820312 L 14.390625 172.871094 L 14.46875 172.925781 L 14.546875 172.984375 L 14.621094 173.046875 L 14.695312 173.113281 L 14.765625 173.183594 L 14.832031 173.253906 L 14.957031 173.410156 L 15.015625 173.492188 L 15.070312 173.578125 L 15.121094 173.667969 L 15.171875 173.765625 L 15.21875 173.863281 L 15.261719 173.960938 L 15.304688 174.066406 L 15.34375 174.175781 L 15.40625 174.402344 L 15.453125 174.644531 L 15.472656 174.769531 L 15.484375 174.898438 L 15.496094 175.03125 L 15.5 175.167969 L 15.503906 175.308594 L 15.503906 177.734375 L 18.71875 177.734375 L 18.71875 178.855469 L 10.464844 178.855469 L 10.464844 175.234375 L 10.472656 175.09375 L 10.480469 174.957031 L 10.492188 174.824219 L 10.507812 174.695312 L 10.554688 174.445312 L 10.582031 174.328125 L 10.609375 174.214844 L 10.644531 174.101562 L 10.722656 173.890625 L 10.765625 173.792969 L 10.8125 173.695312 L 10.859375 173.601562 L 10.910156 173.515625 L 10.964844 173.429688 L 11.023438 173.347656 L 11.085938 173.269531 L 11.148438 173.195312 L 11.214844 173.125 L 11.285156 173.054688 L 11.355469 172.992188 L 11.429688 172.933594 L 11.507812 172.875 L 11.585938 172.824219 L 11.667969 172.773438 L 11.753906 172.730469 L 11.84375 172.6875 L 11.933594 172.648438 L 12.027344 172.613281 L 12.121094 172.585938 L 12.316406 172.53125 L 12.417969 172.511719 L 12.519531 172.496094 L 12.625 172.484375 L 12.730469 172.476562 L 12.839844 172.46875 Z M 12.960938 173.59375 L 12.808594 173.597656 L 12.660156 173.613281 L 12.523438 173.636719 L 12.394531 173.667969 L 12.269531 173.714844 L 12.15625 173.765625 L 12.046875 173.828125 L 11.949219 173.898438 L 11.855469 173.980469 L 11.769531 174.074219 L 11.691406 174.175781 L 11.625 174.285156 L 11.5625 174.40625 L 11.507812 174.535156 L 11.464844 174.675781 L 11.425781 174.824219 L 11.398438 174.980469 L 11.378906 175.148438 L 11.363281 175.328125 L 11.359375 175.515625 L 11.359375 177.734375 L 14.617188 177.734375 L 14.617188 175.46875 L 14.613281 175.28125 L 14.601562 175.101562 L 14.578125 174.933594 L 14.550781 174.777344 L 14.511719 174.628906 L 14.464844 174.492188 L 14.410156 174.367188 L 14.34375 174.25 L 14.273438 174.144531 L 14.191406 174.050781 L 14.101562 173.964844 L 14.003906 173.886719 L 13.898438 173.816406 L 13.789062 173.757812 L 13.667969 173.707031 L 13.542969 173.664062 L 13.40625 173.632812 L 13.265625 173.609375 L 13.117188 173.597656 Z M 12.960938 173.59375 "/>
<path style=" stroke:none;fill-rule:nonzero;fill:rgb(0%,0%,0%);fill-opacity:1;" d="M 15.601562 171.089844 L 15.441406 171.089844 L 15.28125 171.085938 L 14.960938 171.070312 L 14.804688 171.058594 L 14.652344 171.046875 L 14.496094 171.03125 L 14.34375 171.011719 L 14.195312 170.992188 L 14.042969 170.96875 L 13.894531 170.941406 L 13.75 170.914062 L 13.601562 170.882812 L 13.457031 170.847656 L 13.316406 170.808594 L 13.171875 170.769531 L 13.03125 170.726562 L 12.890625 170.679688 L 12.753906 170.632812 L 12.613281 170.582031 L 12.476562 170.527344 L 12.34375 170.46875 L 12.207031 170.410156 L 12.074219 170.347656 L 11.9375 170.28125 L 11.808594 170.210938 L 11.675781 170.140625 L 11.542969 170.066406 L 11.414062 169.988281 L 11.15625 169.824219 L 11.027344 169.738281 L 10.898438 169.648438 L 10.773438 169.554688 L 10.523438 169.359375 L 10.394531 169.253906 L 10.273438 169.148438 L 10.023438 168.929688 L 10.023438 167.910156 L 10.148438 168.019531 L 10.273438 168.125 L 10.523438 168.328125 L 10.648438 168.421875 L 10.777344 168.515625 L 10.902344 168.609375 L 11.160156 168.78125 L 11.289062 168.863281 L 11.417969 168.941406 L 11.550781 169.019531 L 11.679688 169.089844 L 11.8125 169.160156 L 11.945312 169.226562 L 12.082031 169.292969 L 12.214844 169.351562 L 12.488281 169.46875 L 12.625 169.519531 L 12.765625 169.570312 L 12.902344 169.617188 L 13.042969 169.664062 L 13.183594 169.707031 L 13.328125 169.746094 L 13.46875 169.785156 L 13.613281 169.816406 L 13.761719 169.851562 L 13.90625 169.878906 L 14.054688 169.90625 L 14.207031 169.929688 L 14.355469 169.953125 L 14.507812 169.96875 L 14.664062 169.984375 L 14.816406 170 L 14.972656 170.011719 L 15.132812 170.019531 L 15.613281 170.03125 L 15.777344 170.027344 L 16.097656 170.019531 L 16.253906 170.011719 L 16.410156 170 L 16.566406 169.984375 L 16.871094 169.953125 L 17.023438 169.929688 L 17.171875 169.90625 L 17.46875 169.851562 L 17.613281 169.816406 L 17.761719 169.785156 L 17.902344 169.746094 L 18.046875 169.707031 L 18.1875 169.664062 L 18.46875 169.570312 L 18.609375 169.519531 L 18.746094 169.46875 L 19.15625 169.292969 L 19.421875 169.160156 L 19.554688 169.089844 L 19.683594 169.019531 L 19.816406 168.941406 L 19.945312 168.863281 L 20.074219 168.78125 L 20.203125 168.695312 L 20.328125 168.609375 L 20.457031 168.515625 L 20.707031 168.328125 L 20.957031 168.125 L 21.082031 168.019531 L 21.203125 167.910156 L 21.203125 168.929688 L 21.082031 169.039062 L 20.957031 169.148438 L 20.707031 169.359375 L 20.457031 169.554688 L 20.328125 169.648438 L 20.203125 169.738281 L 20.074219 169.824219 L 19.816406 169.988281 L 19.683594 170.066406 L 19.554688 170.140625 L 19.289062 170.28125 L 19.15625 170.347656 L 19.023438 170.410156 L 18.75 170.527344 L 18.613281 170.582031 L 18.476562 170.632812 L 18.339844 170.679688 L 18.199219 170.726562 L 18.058594 170.769531 L 17.914062 170.808594 L 17.773438 170.847656 L 17.628906 170.882812 L 17.484375 170.914062 L 17.335938 170.941406 L 17.191406 170.96875 L 17.042969 170.992188 L 16.738281 171.03125 L 16.582031 171.046875 L 16.269531 171.070312 L 16.113281 171.078125 L 15.953125 171.085938 L 15.789062 171.089844 Z M 15.601562 171.089844 "/>
<path style=" stroke:none;fill-rule:nonzero;fill:rgb(0%,0%,0%);fill-opacity:1;" d="M 18.71875 164.300781 L 18.832031 164.34375 L 18.945312 164.390625 L 19.054688 164.433594 L 19.265625 164.527344 L 19.367188 164.570312 L 19.660156 164.710938 L 19.75 164.757812 L 19.84375 164.804688 L 20.015625 164.898438 L 20.179688 165 L 20.257812 165.050781 L 20.332031 165.105469 L 20.402344 165.160156 L 20.46875 165.214844 L 20.601562 165.332031 L 20.71875 165.449219 L 20.773438 165.511719 L 20.824219 165.574219 L 20.875 165.640625 L 20.960938 165.773438 L 21 165.839844 L 21.035156 165.910156 L 21.066406 165.984375 L 21.097656 166.054688 L 21.125 166.132812 L 21.148438 166.210938 L 21.167969 166.289062 L 21.183594 166.371094 L 21.195312 166.453125 L 21.203125 166.542969 L 21.207031 166.628906 L 21.210938 166.71875 L 21.210938 166.835938 L 21.207031 166.875 L 21.207031 166.949219 L 21.203125 166.984375 L 21.203125 167.019531 L 21.199219 167.054688 L 21.199219 167.089844 L 21.195312 167.121094 L 21.179688 167.261719 L 21.175781 167.300781 L 21.160156 167.371094 L 21.152344 167.410156 L 21.144531 167.445312 L 20.355469 167.445312 L 20.359375 167.421875 L 20.363281 167.402344 L 20.363281 167.375 L 20.371094 167.328125 L 20.371094 167.300781 L 20.375 167.277344 L 20.375 167.222656 L 20.378906 167.195312 L 20.378906 167.167969 L 20.382812 167.140625 L 20.382812 167.113281 L 20.386719 167.089844 L 20.386719 167.039062 L 20.390625 167.015625 L 20.390625 166.953125 L 20.386719 166.863281 L 20.375 166.773438 L 20.359375 166.683594 L 20.335938 166.59375 L 20.304688 166.507812 L 20.265625 166.421875 L 20.21875 166.335938 L 20.167969 166.253906 L 20.109375 166.171875 L 20.042969 166.09375 L 19.972656 166.015625 L 19.890625 165.9375 L 19.800781 165.863281 L 19.703125 165.789062 L 19.597656 165.71875 L 19.480469 165.652344 L 19.359375 165.582031 L 19.230469 165.519531 L 19.089844 165.457031 L 18.941406 165.394531 L 18.691406 165.296875 L 12.378906 167.808594 L 12.378906 166.683594 L 15.882812 165.347656 L 15.988281 165.3125 L 16.027344 165.296875 L 16.070312 165.28125 L 16.113281 165.269531 L 16.15625 165.253906 L 16.203125 165.234375 L 16.304688 165.203125 L 16.359375 165.183594 L 16.410156 165.164062 L 16.464844 165.144531 L 16.515625 165.128906 L 16.570312 165.109375 L 16.621094 165.089844 L 16.675781 165.074219 L 16.726562 165.054688 L 16.78125 165.039062 L 16.832031 165.019531 L 16.886719 165.003906 L 16.988281 164.964844 L 17.222656 164.886719 L 17.308594 164.855469 L 17.386719 164.832031 L 17.421875 164.820312 L 17.453125 164.808594 L 17.480469 164.800781 L 17.527344 164.785156 L 17.558594 164.777344 L 17.570312 164.773438 L 17.558594 164.769531 L 17.539062 164.765625 L 17.523438 164.757812 L 17.5 164.753906 L 17.476562 164.746094 L 17.449219 164.738281 L 17.421875 164.726562 L 17.390625 164.714844 L 17.320312 164.691406 L 17.28125 164.679688 L 17.242188 164.664062 L 17.199219 164.648438 L 17.160156 164.632812 L 17.117188 164.621094 L 17.074219 164.605469 L 17.027344 164.589844 L 16.984375 164.574219 L 16.9375 164.554688 L 16.84375 164.523438 L 16.796875 164.503906 L 16.75 164.488281 L 16.703125 164.46875 L 16.65625 164.453125 L 16.609375 164.433594 L 16.5625 164.417969 L 16.511719 164.398438 L 16.464844 164.382812 L 16.417969 164.363281 L 16.324219 164.332031 L 16.277344 164.3125 L 16.234375 164.296875 L 16.191406 164.285156 L 16.113281 164.253906 L 16.035156 164.230469 L 16 164.21875 L 12.378906 162.976562 L 12.378906 161.863281 Z M 18.71875 164.300781 "/>
<path style=" stroke:none;fill-rule:nonzero;fill:rgb(0%,0%,0%);fill-opacity:1;" d="M 13.703125 161.253906 L 12.835938 161.253906 L 12.835938 155.421875 L 13.703125 155.421875 Z M 16.703125 161.253906 L 15.835938 161.253906 L 15.835938 155.421875 L 16.703125 155.421875 Z M 16.703125 161.253906 "/>
<path style=" stroke:none;fill-rule:nonzero;fill:rgb(0%,0%,0%);fill-opacity:1;" d="M 18.71875 153.917969 L 17.824219 153.917969 L 17.824219 151.8125 L 11.472656 151.8125 L 12.800781 153.675781 L 11.804688 153.675781 L 10.464844 151.726562 L 10.464844 150.753906 L 17.824219 150.753906 L 17.824219 148.742188 L 18.71875 148.742188 Z M 18.71875 153.917969 "/>
<path style=" stroke:none;fill-rule:nonzero;fill:rgb(0%,0%,0%);fill-opacity:1;" d="M 15.625 144.90625 L 15.789062 144.90625 L 15.953125 144.910156 L 16.113281 144.917969 L 16.269531 144.925781 L 16.582031 144.949219 L 16.738281 144.964844 L 17.042969 145.003906 L 17.191406 145.027344 L 17.335938 145.054688 L 17.484375 145.082031 L 17.628906 145.113281 L 17.773438 145.148438 L 17.914062 145.1875 L 18.058594 145.226562 L 18.199219 145.269531 L 18.339844 145.316406 L 18.476562 145.363281 L 18.613281 145.414062 L 18.75 145.46875 L 19.023438 145.585938 L 19.15625 145.648438 L 19.289062 145.714844 L 19.554688 145.855469 L 19.683594 145.929688 L 19.816406 146.007812 L 20.074219 146.171875 L 20.203125 146.257812 L 20.328125 146.347656 L 20.457031 146.441406 L 20.707031 146.636719 L 20.957031 146.847656 L 21.082031 146.957031 L 21.203125 147.066406 L 21.203125 148.085938 L 21.082031 147.976562 L 20.957031 147.871094 L 20.832031 147.769531 L 20.582031 147.574219 L 20.457031 147.480469 L 20.328125 147.390625 L 20.203125 147.304688 L 20.074219 147.21875 L 19.945312 147.136719 L 19.816406 147.058594 L 19.683594 146.980469 L 19.554688 146.910156 L 19.421875 146.835938 L 19.289062 146.769531 L 19.15625 146.707031 L 19.019531 146.644531 L 18.746094 146.527344 L 18.609375 146.476562 L 18.46875 146.425781 L 18.1875 146.332031 L 18.046875 146.289062 L 17.902344 146.25 L 17.761719 146.214844 L 17.613281 146.179688 L 17.46875 146.148438 L 17.171875 146.09375 L 17.023438 146.070312 L 16.871094 146.046875 L 16.71875 146.027344 L 16.566406 146.011719 L 16.097656 145.976562 L 15.777344 145.96875 L 15.613281 145.964844 L 15.132812 145.976562 L 14.972656 145.988281 L 14.816406 146 L 14.664062 146.011719 L 14.507812 146.027344 L 14.355469 146.046875 L 14.207031 146.070312 L 14.054688 146.09375 L 13.90625 146.121094 L 13.761719 146.148438 L 13.613281 146.179688 L 13.46875 146.214844 L 13.328125 146.25 L 13.183594 146.289062 L 13.042969 146.332031 L 12.902344 146.378906 L 12.765625 146.425781 L 12.625 146.476562 L 12.488281 146.527344 L 12.214844 146.644531 L 12.082031 146.707031 L 11.945312 146.769531 L 11.8125 146.835938 L 11.679688 146.910156 L 11.550781 146.980469 L 11.417969 147.058594 L 11.289062 147.136719 L 11.160156 147.21875 L 10.902344 147.390625 L 10.777344 147.480469 L 10.648438 147.574219 L 10.398438 147.769531 L 10.273438 147.871094 L 10.148438 147.976562 L 10.023438 148.085938 L 10.023438 147.066406 L 10.273438 146.847656 L 10.394531 146.742188 L 10.523438 146.636719 L 10.773438 146.441406 L 10.898438 146.347656 L 11.027344 146.257812 L 11.15625 146.171875 L 11.414062 146.007812 L 11.542969 145.929688 L 11.675781 145.855469 L 11.808594 145.785156 L 11.9375 145.714844 L 12.074219 145.648438 L 12.207031 145.585938 L 12.34375 145.527344 L 12.476562 145.46875 L 12.613281 145.414062 L 12.753906 145.363281 L 12.890625 145.316406 L 13.03125 145.269531 L 13.171875 145.226562 L 13.316406 145.1875 L 13.457031 145.148438 L 13.601562 145.113281 L 13.75 145.082031 L 13.894531 145.054688 L 14.042969 145.027344 L 14.195312 145.003906 L 14.34375 144.984375 L 14.496094 144.964844 L 14.652344 144.949219 L 14.804688 144.9375 L 14.960938 144.925781 L 15.28125 144.910156 L 15.441406 144.90625 Z M 15.625 144.90625 "/>
<path style="fill:none;stroke-width:0.75;stroke-linecap:round;stroke-linejoin:round;stroke:rgb(0%,0%,0%);stroke-opacity:1;stroke-miterlimit:10;" d="M 28.800781 295.199219 L 295.199219 295.199219 L 295.199219 28.800781 L 28.800781 28.800781 Z M 28.800781 295.199219 "/>
</g>
</svg>
