<?xml version="1.0" encoding="UTF-8"?>
<svg xmlns="http://www.w3.org/2000/svg" xmlns:xlink="http://www.w3.org/1999/xlink" width="324pt" height="324pt" viewBox="0 0 324 324" version="1.1">
<defs>
<clipPath id="clip1">
  <path d="M 87 161 L 109 161 L 109 295.199219 L 87 295.199219 Z M 87 161 "/>
</clipPath>
<clipPath id="clip2">
  <path d="M 236 28.800781 L 256 28.800781 L 256 162 L 236 162 Z M 236 28.800781 "/>
</clipPath>
<clipPath id="clip3">
  <path d="M 235 28.800781 L 257 28.800781 L 257 163 L 235 163 Z M 235 28.800781 "/>
</clipPath>
<clipPath id="clip4">
  <path d="M 260 28.800781 L 281 28.800781 L 281 138 L 260 138 Z M 260 28.800781 "/>
</clipPath>
<clipPath id="clip5">
  <path d="M 28.800781 161 L 295.199219 161 L 295.199219 163 L 28.800781 163 Z M 28.800781 161 "/>
</clipPath>
</defs>
<g id="surface61">
<rect x="0" y="0" width="324" height="324" style="fill:rgb(100%,100%,100%);fill-opacity:1;stroke:none;"/>
<path style="fill:none;stroke-width:0.75;stroke-linecap:round;stroke-linejoin:round;stroke:rgb(0%,0%,0%);stroke-opacity:1;stroke-miterlimit:10;" d="M 38.667969 285.332031 L 285.332031 38.667969 "/>
<g clip-path="url(#clip1)" clip-rule="nonzero">
<path style="fill:none;stroke-width:0.75;stroke-linecap:round;stroke-linejoin:round;stroke:rgb(0%,0%,0%);stroke-opacity:1;stroke-miterlimit:10;" d="M 88.007812 310 L 88.007812 308.503906 L 88.011719 307.011719 L 88.015625 305.515625 L 88.03125 302.523438 L 88.039062 301.03125 L 88.070312 298.039062 L 88.09375 296.546875 L 88.121094 295.050781 L 88.15625 293.554688 L 88.199219 292.0625 L 88.253906 290.566406 L 88.320312 289.070312 L 88.402344 287.574219 L 88.503906 286.082031 L 88.625 284.585938 L 88.769531 283.089844 L 88.945312 281.597656 L 89.148438 280.101562 L 89.386719 278.605469 L 89.667969 277.109375 L 89.988281 275.617188 L 90.355469 274.121094 L 90.773438 272.625 L 91.242188 271.132812 L 91.769531 269.636719 L 92.351562 268.140625 L 92.992188 266.644531 L 93.6875 265.152344 L 94.4375 263.65625 L 95.242188 262.160156 L 96.089844 260.667969 L 96.980469 259.171875 L 97.90625 257.675781 L 98.855469 256.183594 L 99.816406 254.6875 L 100.78125 253.191406 L 101.730469 251.695312 L 102.65625 250.203125 L 103.546875 248.707031 L 104.378906 247.210938 L 105.144531 245.71875 L 105.832031 244.222656 L 106.421875 242.726562 L 106.910156 241.230469 L 107.285156 239.738281 L 107.535156 238.242188 L 107.664062 236.746094 L 107.664062 235.253906 L 107.535156 233.757812 L 107.285156 232.261719 L 106.910156 230.769531 L 106.421875 229.273438 L 105.832031 227.777344 L 105.144531 226.28125 L 104.378906 224.789062 L 103.546875 223.292969 L 102.65625 221.796875 L 101.730469 220.304688 L 100.78125 218.808594 L 99.816406 217.3125 L 98.855469 215.816406 L 97.90625 214.324219 L 96.980469 212.828125 L 96.089844 211.332031 L 95.242188 209.839844 L 94.4375 208.34375 L 93.6875 206.847656 L 92.992188 205.355469 L 92.351562 203.859375 L 91.769531 202.363281 L 91.242188 200.867188 L 90.773438 199.375 L 90.355469 197.878906 L 89.988281 196.382812 L 89.667969 194.890625 L 89.386719 193.394531 L 89.148438 191.898438 L 88.945312 190.402344 L 88.769531 188.910156 L 88.625 187.414062 L 88.503906 185.917969 L 88.402344 184.425781 L 88.320312 182.929688 L 88.253906 181.433594 L 88.199219 179.9375 L 88.15625 178.445312 L 88.121094 176.949219 L 88.09375 175.453125 L 88.070312 173.960938 L 88.039062 170.96875 L 88.03125 169.476562 L 88.015625 166.484375 L 88.011719 164.988281 L 88.007812 163.496094 L 88.007812 162 "/>
</g>
<path style="fill-rule:nonzero;fill:rgb(0%,50.196078%,100%);fill-opacity:0.8;stroke-width:0.75;stroke-linecap:round;stroke-linejoin:round;stroke:rgb(0%,50.196078%,100%);stroke-opacity:0.8;stroke-miterlimit:10;" d="M 112.667969 162 L 113.171875 161.253906 L 113.070312 159.757812 L 112.988281 158.261719 L 112.921875 156.769531 L 112.867188 155.273438 L 112.824219 153.777344 L 112.789062 152.28125 L 112.757812 150.789062 L 112.738281 149.292969 L 112.722656 147.796875 L 112.707031 146.304688 L 112.683594 141.816406 L 112.679688 140.324219 L 112.671875 137.332031 L 112.667969 137.085938 Z M 112.667969 162 "/>
<path style="fill:none;stroke-width:0.75;stroke-linecap:round;stroke-linejoin:round;stroke:rgb(0%,0%,0%);stroke-opacity:1;stroke-miterlimit:10;" d="M 112.671875 285.332031 L 112.675781 283.839844 L 112.683594 280.847656 L 112.691406 279.355469 L 112.707031 276.363281 L 112.722656 274.867188 L 112.738281 273.375 L 112.757812 271.878906 L 112.789062 270.382812 L 112.824219 268.890625 L 112.867188 267.394531 L 112.921875 265.898438 L 112.988281 264.402344 L 113.070312 262.910156 L 113.171875 261.414062 L 113.292969 259.917969 L 113.4375 258.425781 L 113.609375 256.929688 L 113.816406 255.433594 L 114.054688 253.9375 L 114.332031 252.445312 L 114.652344 250.949219 L 115.023438 249.453125 L 115.441406 247.960938 L 115.910156 246.464844 L 116.433594 244.96875 L 117.019531 243.476562 L 117.65625 241.980469 L 118.351562 240.484375 L 119.105469 238.988281 L 119.90625 237.496094 L 120.757812 236 L 121.648438 234.503906 L 122.574219 233.011719 L 123.523438 231.515625 L 125.445312 228.523438 L 126.398438 227.03125 L 127.324219 225.535156 L 128.210938 224.039062 L 129.046875 222.546875 L 129.8125 221.050781 L 130.496094 219.554688 L 131.089844 218.0625 L 131.578125 216.566406 L 131.949219 215.070312 L 132.203125 213.574219 L 132.332031 212.082031 L 132.332031 210.585938 L 132.203125 209.089844 L 131.949219 207.597656 L 131.578125 206.101562 L 131.089844 204.605469 L 130.496094 203.109375 L 129.8125 201.617188 L 129.046875 200.121094 L 128.210938 198.625 L 127.324219 197.132812 L 126.398438 195.636719 L 125.445312 194.140625 L 124.484375 192.644531 L 123.523438 191.152344 L 122.574219 189.65625 L 121.648438 188.160156 L 120.757812 186.667969 L 119.90625 185.171875 L 119.105469 183.675781 L 118.351562 182.183594 L 117.65625 180.6875 L 117.019531 179.191406 L 116.433594 177.695312 L 115.910156 176.203125 L 115.441406 174.707031 L 115.023438 173.210938 L 114.652344 171.71875 L 114.332031 170.222656 L 114.054688 168.726562 L 113.816406 167.230469 L 113.609375 165.738281 L 113.4375 164.242188 L 113.292969 162.746094 L 113.171875 161.253906 L 113.070312 159.757812 L 112.988281 158.261719 L 112.921875 156.769531 L 112.867188 155.273438 L 112.824219 153.777344 L 112.789062 152.28125 L 112.757812 150.789062 L 112.738281 149.292969 L 112.722656 147.796875 L 112.707031 146.304688 L 112.683594 141.816406 L 112.679688 140.324219 L 112.671875 137.332031 "/>
<path style="fill-rule:nonzero;fill:rgb(0%,50.196078%,100%);fill-opacity:0.8;stroke-width:0.75;stroke-linecap:round;stroke-linejoin:round;stroke:rgb(0%,50.196078%,100%);stroke-opacity:0.8;stroke-miterlimit:10;" d="M 137.332031 162 L 145.425781 162 L 144.574219 160.503906 L 143.769531 159.011719 L 143.019531 157.515625 L 142.324219 156.019531 L 141.683594 154.523438 L 141.101562 153.03125 L 140.578125 151.535156 L 140.105469 150.039062 L 139.6875 148.546875 L 139.320312 147.050781 L 139 145.554688 L 138.722656 144.0625 L 138.480469 142.566406 L 138.277344 141.070312 L 138.105469 139.574219 L 137.957031 138.082031 L 137.835938 136.585938 L 137.738281 135.089844 L 137.65625 133.597656 L 137.585938 132.101562 L 137.53125 130.605469 L 137.488281 129.109375 L 137.453125 127.617188 L 137.425781 126.121094 L 137.40625 124.625 L 137.386719 123.132812 L 137.363281 120.140625 L 137.355469 118.644531 L 137.351562 117.152344 L 137.34375 114.160156 L 137.339844 112.667969 L 137.332031 112.421875 Z M 137.332031 162 "/>
<path style="fill:none;stroke-width:0.75;stroke-linecap:round;stroke-linejoin:round;stroke:rgb(0%,0%,0%);stroke-opacity:1;stroke-miterlimit:10;" d="M 137.339844 260.667969 L 137.347656 257.675781 L 137.351562 256.183594 L 137.355469 254.6875 L 137.363281 253.191406 L 137.375 251.695312 L 137.386719 250.203125 L 137.425781 247.210938 L 137.453125 245.71875 L 137.488281 244.222656 L 137.53125 242.726562 L 137.585938 241.230469 L 137.65625 239.738281 L 137.738281 238.242188 L 137.835938 236.746094 L 137.957031 235.253906 L 138.105469 233.757812 L 138.277344 232.261719 L 138.480469 230.769531 L 138.722656 229.273438 L 139 227.777344 L 139.320312 226.28125 L 139.6875 224.789062 L 140.105469 223.292969 L 140.578125 221.796875 L 141.101562 220.304688 L 141.683594 218.808594 L 142.324219 217.3125 L 143.019531 215.816406 L 143.769531 214.324219 L 144.574219 212.828125 L 145.425781 211.332031 L 146.316406 209.839844 L 147.238281 208.34375 L 148.1875 206.847656 L 149.148438 205.355469 L 150.113281 203.859375 L 151.066406 202.363281 L 151.992188 200.867188 L 152.878906 199.375 L 153.710938 197.878906 L 154.476562 196.382812 L 155.164062 194.890625 L 155.753906 193.394531 L 156.242188 191.898438 L 156.617188 190.402344 L 156.871094 188.910156 L 157 187.414062 L 157 185.917969 L 156.871094 184.425781 L 156.617188 182.929688 L 156.242188 181.433594 L 155.753906 179.9375 L 155.164062 178.445312 L 154.476562 176.949219 L 153.710938 175.453125 L 152.878906 173.960938 L 151.992188 172.464844 L 151.066406 170.96875 L 150.113281 169.476562 L 149.148438 167.980469 L 148.1875 166.484375 L 147.238281 164.988281 L 146.316406 163.496094 L 145.425781 162 L 144.574219 160.503906 L 143.769531 159.011719 L 143.019531 157.515625 L 142.324219 156.019531 L 141.683594 154.523438 L 141.101562 153.03125 L 140.578125 151.535156 L 140.105469 150.039062 L 139.6875 148.546875 L 139.320312 147.050781 L 139 145.554688 L 138.722656 144.0625 L 138.480469 142.566406 L 138.277344 141.070312 L 138.105469 139.574219 L 137.957031 138.082031 L 137.835938 136.585938 L 137.738281 135.089844 L 137.65625 133.597656 L 137.585938 132.101562 L 137.53125 130.605469 L 137.488281 129.109375 L 137.453125 127.617188 L 137.425781 126.121094 L 137.40625 124.625 L 137.386719 123.132812 L 137.363281 120.140625 L 137.355469 118.644531 L 137.351562 117.152344 L 137.34375 114.160156 L 137.339844 112.667969 "/>
<path style="fill-rule:nonzero;fill:rgb(0%,50.196078%,100%);fill-opacity:0.8;stroke-width:0.75;stroke-linecap:round;stroke-linejoin:round;stroke:rgb(0%,50.196078%,100%);stroke-opacity:0.8;stroke-miterlimit:10;" d="M 162 162 L 181.664062 161.253906 L 181.535156 159.757812 L 181.285156 158.261719 L 180.910156 156.769531 L 180.421875 155.273438 L 179.832031 153.777344 L 179.144531 152.28125 L 178.378906 150.789062 L 177.546875 149.292969 L 176.65625 147.796875 L 175.730469 146.304688 L 174.78125 144.808594 L 173.816406 143.3125 L 172.855469 141.816406 L 171.90625 140.324219 L 170.980469 138.828125 L 170.089844 137.332031 L 169.242188 135.839844 L 168.4375 134.34375 L 167.6875 132.847656 L 166.992188 131.355469 L 166.351562 129.859375 L 165.769531 128.363281 L 165.242188 126.867188 L 164.773438 125.375 L 164.355469 123.878906 L 163.988281 122.382812 L 163.667969 120.890625 L 163.386719 119.394531 L 163.148438 117.898438 L 162.945312 116.402344 L 162.769531 114.910156 L 162.625 113.414062 L 162.503906 111.917969 L 162.402344 110.425781 L 162.320312 108.929688 L 162.253906 107.433594 L 162.199219 105.9375 L 162.15625 104.445312 L 162.121094 102.949219 L 162.09375 101.453125 L 162.070312 99.960938 L 162.039062 96.96875 L 162.03125 95.476562 L 162.015625 92.484375 L 162.011719 90.988281 L 162.007812 89.496094 L 162.007812 88 L 162 87.753906 Z M 162 162 "/>
<path style="fill:none;stroke-width:0.75;stroke-linecap:round;stroke-linejoin:round;stroke:rgb(0%,0%,0%);stroke-opacity:1;stroke-miterlimit:10;" d="M 162.007812 236 L 162.007812 234.503906 L 162.011719 233.011719 L 162.015625 231.515625 L 162.03125 228.523438 L 162.039062 227.03125 L 162.070312 224.039062 L 162.09375 222.546875 L 162.121094 221.050781 L 162.15625 219.554688 L 162.199219 218.0625 L 162.253906 216.566406 L 162.320312 215.070312 L 162.402344 213.574219 L 162.503906 212.082031 L 162.625 210.585938 L 162.769531 209.089844 L 162.945312 207.597656 L 163.148438 206.101562 L 163.386719 204.605469 L 163.667969 203.109375 L 163.988281 201.617188 L 164.355469 200.121094 L 164.773438 198.625 L 165.242188 197.132812 L 165.769531 195.636719 L 166.351562 194.140625 L 166.992188 192.644531 L 167.6875 191.152344 L 168.4375 189.65625 L 169.242188 188.160156 L 170.089844 186.667969 L 170.980469 185.171875 L 171.90625 183.675781 L 172.855469 182.183594 L 173.816406 180.6875 L 174.78125 179.191406 L 175.730469 177.695312 L 176.65625 176.203125 L 177.546875 174.707031 L 178.378906 173.210938 L 179.144531 171.71875 L 179.832031 170.222656 L 180.421875 168.726562 L 180.910156 167.230469 L 181.285156 165.738281 L 181.535156 164.242188 L 181.664062 162.746094 L 181.664062 161.253906 L 181.535156 159.757812 L 181.285156 158.261719 L 180.910156 156.769531 L 180.421875 155.273438 L 179.832031 153.777344 L 179.144531 152.28125 L 178.378906 150.789062 L 177.546875 149.292969 L 176.65625 147.796875 L 175.730469 146.304688 L 174.78125 144.808594 L 173.816406 143.3125 L 172.855469 141.816406 L 171.90625 140.324219 L 170.980469 138.828125 L 170.089844 137.332031 L 169.242188 135.839844 L 168.4375 134.34375 L 167.6875 132.847656 L 166.992188 131.355469 L 166.351562 129.859375 L 165.769531 128.363281 L 165.242188 126.867188 L 164.773438 125.375 L 164.355469 123.878906 L 163.988281 122.382812 L 163.667969 120.890625 L 163.386719 119.394531 L 163.148438 117.898438 L 162.945312 116.402344 L 162.769531 114.910156 L 162.625 113.414062 L 162.503906 111.917969 L 162.402344 110.425781 L 162.320312 108.929688 L 162.253906 107.433594 L 162.199219 105.9375 L 162.15625 104.445312 L 162.121094 102.949219 L 162.09375 101.453125 L 162.070312 99.960938 L 162.039062 96.96875 L 162.03125 95.476562 L 162.015625 92.484375 L 162.011719 90.988281 L 162.007812 89.496094 L 162.007812 88 "/>
<path style="fill-rule:nonzero;fill:rgb(0%,50.196078%,100%);fill-opacity:0.8;stroke-width:0.75;stroke-linecap:round;stroke-linejoin:round;stroke:rgb(0%,50.196078%,100%);stroke-opacity:0.8;stroke-miterlimit:10;" d="M 186.667969 162 L 194.757812 162 L 195.648438 160.503906 L 196.574219 159.011719 L 197.523438 157.515625 L 199.445312 154.523438 L 200.398438 153.03125 L 201.324219 151.535156 L 202.210938 150.039062 L 203.046875 148.546875 L 203.8125 147.050781 L 204.496094 145.554688 L 205.089844 144.0625 L 205.578125 142.566406 L 205.949219 141.070312 L 206.203125 139.574219 L 206.332031 138.082031 L 206.332031 136.585938 L 206.203125 135.089844 L 205.949219 133.597656 L 205.578125 132.101562 L 205.089844 130.605469 L 204.496094 129.109375 L 203.8125 127.617188 L 203.046875 126.121094 L 202.210938 124.625 L 201.324219 123.132812 L 200.398438 121.636719 L 199.445312 120.140625 L 198.484375 118.644531 L 197.523438 117.152344 L 196.574219 115.65625 L 195.648438 114.160156 L 194.757812 112.667969 L 193.90625 111.171875 L 193.105469 109.675781 L 192.351562 108.183594 L 191.65625 106.6875 L 191.019531 105.191406 L 190.433594 103.695312 L 189.910156 102.203125 L 189.441406 100.707031 L 189.023438 99.210938 L 188.652344 97.71875 L 188.332031 96.222656 L 188.054688 94.726562 L 187.816406 93.230469 L 187.609375 91.738281 L 187.4375 90.242188 L 187.292969 88.746094 L 187.171875 87.253906 L 187.070312 85.757812 L 186.988281 84.261719 L 186.921875 82.769531 L 186.867188 81.273438 L 186.824219 79.777344 L 186.789062 78.28125 L 186.757812 76.789062 L 186.738281 75.292969 L 186.722656 73.796875 L 186.707031 72.304688 L 186.683594 67.816406 L 186.679688 66.324219 L 186.671875 63.332031 L 186.667969 63.085938 Z M 186.667969 162 "/>
<path style="fill:none;stroke-width:0.75;stroke-linecap:round;stroke-linejoin:round;stroke:rgb(0%,0%,0%);stroke-opacity:1;stroke-miterlimit:10;" d="M 186.671875 211.332031 L 186.675781 209.839844 L 186.683594 206.847656 L 186.691406 205.355469 L 186.707031 202.363281 L 186.722656 200.867188 L 186.738281 199.375 L 186.757812 197.878906 L 186.789062 196.382812 L 186.824219 194.890625 L 186.867188 193.394531 L 186.921875 191.898438 L 186.988281 190.402344 L 187.070312 188.910156 L 187.171875 187.414062 L 187.292969 185.917969 L 187.4375 184.425781 L 187.609375 182.929688 L 187.816406 181.433594 L 188.054688 179.9375 L 188.332031 178.445312 L 188.652344 176.949219 L 189.023438 175.453125 L 189.441406 173.960938 L 189.910156 172.464844 L 190.433594 170.96875 L 191.019531 169.476562 L 191.65625 167.980469 L 192.351562 166.484375 L 193.105469 164.988281 L 193.90625 163.496094 L 194.757812 162 L 195.648438 160.503906 L 196.574219 159.011719 L 197.523438 157.515625 L 199.445312 154.523438 L 200.398438 153.03125 L 201.324219 151.535156 L 202.210938 150.039062 L 203.046875 148.546875 L 203.8125 147.050781 L 204.496094 145.554688 L 205.089844 144.0625 L 205.578125 142.566406 L 205.949219 141.070312 L 206.203125 139.574219 L 206.332031 138.082031 L 206.332031 136.585938 L 206.203125 135.089844 L 205.949219 133.597656 L 205.578125 132.101562 L 205.089844 130.605469 L 204.496094 129.109375 L 203.8125 127.617188 L 203.046875 126.121094 L 202.210938 124.625 L 201.324219 123.132812 L 200.398438 121.636719 L 199.445312 120.140625 L 198.484375 118.644531 L 197.523438 117.152344 L 196.574219 115.65625 L 195.648438 114.160156 L 194.757812 112.667969 L 193.90625 111.171875 L 193.105469 109.675781 L 192.351562 108.183594 L 191.65625 106.6875 L 191.019531 105.191406 L 190.433594 103.695312 L 189.910156 102.203125 L 189.441406 100.707031 L 189.023438 99.210938 L 188.652344 97.71875 L 188.332031 96.222656 L 188.054688 94.726562 L 187.816406 93.230469 L 187.609375 91.738281 L 187.4375 90.242188 L 187.292969 88.746094 L 187.171875 87.253906 L 187.070312 85.757812 L 186.988281 84.261719 L 186.921875 82.769531 L 186.867188 81.273438 L 186.824219 79.777344 L 186.789062 78.28125 L 186.757812 76.789062 L 186.738281 75.292969 L 186.722656 73.796875 L 186.707031 72.304688 L 186.683594 67.816406 L 186.679688 66.324219 L 186.671875 63.332031 "/>
<path style="fill-rule:nonzero;fill:rgb(0%,50.196078%,100%);fill-opacity:0.8;stroke-width:0.75;stroke-linecap:round;stroke-linejoin:round;stroke:rgb(0%,50.196078%,100%);stroke-opacity:0.8;stroke-miterlimit:10;" d="M 211.332031 162 L 211.957031 161.253906 L 212.105469 159.757812 L 212.277344 158.261719 L 212.480469 156.769531 L 212.722656 155.273438 L 213 153.777344 L 213.320312 152.28125 L 213.6875 150.789062 L 214.105469 149.292969 L 214.578125 147.796875 L 215.101562 146.304688 L 215.683594 144.808594 L 216.324219 143.3125 L 217.019531 141.816406 L 217.769531 140.324219 L 218.574219 138.828125 L 219.425781 137.332031 L 220.316406 135.839844 L 221.238281 134.34375 L 222.1875 132.847656 L 223.148438 131.355469 L 224.113281 129.859375 L 225.066406 128.363281 L 225.992188 126.867188 L 226.878906 125.375 L 227.710938 123.878906 L 228.476562 122.382812 L 229.164062 120.890625 L 229.753906 119.394531 L 230.242188 117.898438 L 230.617188 116.402344 L 230.871094 114.910156 L 231 113.414062 L 231 111.917969 L 230.871094 110.425781 L 230.617188 108.929688 L 230.242188 107.433594 L 229.753906 105.9375 L 229.164062 104.445312 L 228.476562 102.949219 L 227.710938 101.453125 L 226.878906 99.960938 L 225.992188 98.464844 L 225.066406 96.96875 L 224.113281 95.476562 L 223.148438 93.980469 L 222.1875 92.484375 L 221.238281 90.988281 L 220.316406 89.496094 L 219.425781 88 L 218.574219 86.503906 L 217.769531 85.011719 L 217.019531 83.515625 L 216.324219 82.019531 L 215.683594 80.523438 L 215.101562 79.03125 L 214.578125 77.535156 L 214.105469 76.039062 L 213.6875 74.546875 L 213.320312 73.050781 L 213 71.554688 L 212.722656 70.0625 L 212.480469 68.566406 L 212.277344 67.070312 L 212.105469 65.574219 L 211.957031 64.082031 L 211.835938 62.585938 L 211.738281 61.089844 L 211.65625 59.597656 L 211.585938 58.101562 L 211.53125 56.605469 L 211.488281 55.109375 L 211.453125 53.617188 L 211.425781 52.121094 L 211.40625 50.625 L 211.386719 49.132812 L 211.363281 46.140625 L 211.355469 44.644531 L 211.351562 43.152344 L 211.34375 40.160156 L 211.339844 38.667969 L 211.332031 38.421875 Z M 211.332031 162 "/>
<path style="fill:none;stroke-width:0.75;stroke-linecap:round;stroke-linejoin:round;stroke:rgb(0%,0%,0%);stroke-opacity:1;stroke-miterlimit:10;" d="M 211.339844 186.667969 L 211.347656 183.675781 L 211.351562 182.183594 L 211.355469 180.6875 L 211.363281 179.191406 L 211.375 177.695312 L 211.386719 176.203125 L 211.425781 173.210938 L 211.453125 171.71875 L 211.488281 170.222656 L 211.53125 168.726562 L 211.585938 167.230469 L 211.65625 165.738281 L 211.738281 164.242188 L 211.835938 162.746094 L 211.957031 161.253906 L 212.105469 159.757812 L 212.277344 158.261719 L 212.480469 156.769531 L 212.722656 155.273438 L 213 153.777344 L 213.320312 152.28125 L 213.6875 150.789062 L 214.105469 149.292969 L 214.578125 147.796875 L 215.101562 146.304688 L 215.683594 144.808594 L 216.324219 143.3125 L 217.019531 141.816406 L 217.769531 140.324219 L 218.574219 138.828125 L 219.425781 137.332031 L 220.316406 135.839844 L 221.238281 134.34375 L 222.1875 132.847656 L 223.148438 131.355469 L 224.113281 129.859375 L 225.066406 128.363281 L 225.992188 126.867188 L 226.878906 125.375 L 227.710938 123.878906 L 228.476562 122.382812 L 229.164062 120.890625 L 229.753906 119.394531 L 230.242188 117.898438 L 230.617188 116.402344 L 230.871094 114.910156 L 231 113.414062 L 231 111.917969 L 230.871094 110.425781 L 230.617188 108.929688 L 230.242188 107.433594 L 229.753906 105.9375 L 229.164062 104.445312 L 228.476562 102.949219 L 227.710938 101.453125 L 226.878906 99.960938 L 225.992188 98.464844 L 225.066406 96.96875 L 224.113281 95.476562 L 223.148438 93.980469 L 222.1875 92.484375 L 221.238281 90.988281 L 220.316406 89.496094 L 219.425781 88 L 218.574219 86.503906 L 217.769531 85.011719 L 217.019531 83.515625 L 216.324219 82.019531 L 215.683594 80.523438 L 215.101562 79.03125 L 214.578125 77.535156 L 214.105469 76.039062 L 213.6875 74.546875 L 213.320312 73.050781 L 213 71.554688 L 212.722656 70.0625 L 212.480469 68.566406 L 212.277344 67.070312 L 212.105469 65.574219 L 211.957031 64.082031 L 211.835938 62.585938 L 211.738281 61.089844 L 211.65625 59.597656 L 211.585938 58.101562 L 211.53125 56.605469 L 211.488281 55.109375 L 211.453125 53.617188 L 211.425781 52.121094 L 211.40625 50.625 L 211.386719 49.132812 L 211.363281 46.140625 L 211.355469 44.644531 L 211.351562 43.152344 L 211.34375 40.160156 L 211.339844 38.667969 "/>
<g clip-path="url(#clip2)" clip-rule="nonzero">
<path style=" stroke:none;fill-rule:nonzero;fill:rgb(0%,50.196078%,100%);fill-opacity:0.8;" d="M 236 162 L 236.007812 162 L 236.007812 160.503906 L 236.011719 159.011719 L 236.015625 157.515625 L 236.03125 154.523438 L 236.039062 153.03125 L 236.070312 150.039062 L 236.09375 148.546875 L 236.121094 147.050781 L 236.15625 145.554688 L 236.199219 144.0625 L 236.253906 142.566406 L 236.320312 141.070312 L 236.402344 139.574219 L 236.503906 138.082031 L 236.625 136.585938 L 236.769531 135.089844 L 236.945312 133.597656 L 237.148438 132.101562 L 237.386719 130.605469 L 237.667969 129.109375 L 237.988281 127.617188 L 238.355469 126.121094 L 238.773438 124.625 L 239.242188 123.132812 L 239.769531 121.636719 L 240.351562 120.140625 L 240.992188 118.644531 L 241.6875 117.152344 L 242.4375 115.65625 L 243.242188 114.160156 L 244.089844 112.667969 L 244.980469 111.171875 L 245.90625 109.675781 L 246.855469 108.183594 L 247.816406 106.6875 L 248.78125 105.191406 L 249.730469 103.695312 L 250.65625 102.203125 L 251.546875 100.707031 L 252.378906 99.210938 L 253.144531 97.71875 L 253.832031 96.222656 L 254.421875 94.726562 L 254.910156 93.230469 L 255.285156 91.738281 L 255.535156 90.242188 L 255.664062 88.746094 L 255.664062 87.253906 L 255.535156 85.757812 L 255.285156 84.261719 L 254.910156 82.769531 L 254.421875 81.273438 L 253.832031 79.777344 L 253.144531 78.28125 L 252.378906 76.789062 L 251.546875 75.292969 L 250.65625 73.796875 L 249.730469 72.304688 L 248.78125 70.808594 L 247.816406 69.3125 L 246.855469 67.816406 L 245.90625 66.324219 L 244.980469 64.828125 L 244.089844 63.332031 L 243.242188 61.839844 L 242.4375 60.34375 L 241.6875 58.847656 L 240.992188 57.355469 L 240.351562 55.859375 L 239.769531 54.363281 L 239.242188 52.867188 L 238.773438 51.375 L 238.355469 49.878906 L 237.988281 48.382812 L 237.667969 46.890625 L 237.386719 45.394531 L 237.148438 43.898438 L 236.945312 42.402344 L 236.769531 40.910156 L 236.625 39.414062 L 236.503906 37.917969 L 236.402344 36.425781 L 236.320312 34.929688 L 236.253906 33.433594 L 236.199219 31.9375 L 236.15625 30.445312 L 236.121094 28.949219 L 236.09375 27.453125 L 236.070312 25.960938 L 236.039062 22.96875 L 236.03125 21.476562 L 236.015625 18.484375 L 236.011719 16.988281 L 236.007812 15.496094 L 236.007812 14 L 236 13.753906 Z M 236 162 "/>
</g>
<g clip-path="url(#clip3)" clip-rule="nonzero">
<path style="fill:none;stroke-width:0.75;stroke-linecap:round;stroke-linejoin:round;stroke:rgb(0%,50.196078%,100%);stroke-opacity:0.8;stroke-miterlimit:10;" d="M 236 162 L 236.007812 162 L 236.007812 160.503906 L 236.011719 159.011719 L 236.015625 157.515625 L 236.03125 154.523438 L 236.039062 153.03125 L 236.070312 150.039062 L 236.09375 148.546875 L 236.121094 147.050781 L 236.15625 145.554688 L 236.199219 144.0625 L 236.253906 142.566406 L 236.320312 141.070312 L 236.402344 139.574219 L 236.503906 138.082031 L 236.625 136.585938 L 236.769531 135.089844 L 236.945312 133.597656 L 237.148438 132.101562 L 237.386719 130.605469 L 237.667969 129.109375 L 237.988281 127.617188 L 238.355469 126.121094 L 238.773438 124.625 L 239.242188 123.132812 L 239.769531 121.636719 L 240.351562 120.140625 L 240.992188 118.644531 L 241.6875 117.152344 L 242.4375 115.65625 L 243.242188 114.160156 L 244.089844 112.667969 L 244.980469 111.171875 L 245.90625 109.675781 L 246.855469 108.183594 L 247.816406 106.6875 L 248.78125 105.191406 L 249.730469 103.695312 L 250.65625 102.203125 L 251.546875 100.707031 L 252.378906 99.210938 L 253.144531 97.71875 L 253.832031 96.222656 L 254.421875 94.726562 L 254.910156 93.230469 L 255.285156 91.738281 L 255.535156 90.242188 L 255.664062 88.746094 L 255.664062 87.253906 L 255.535156 85.757812 L 255.285156 84.261719 L 254.910156 82.769531 L 254.421875 81.273438 L 253.832031 79.777344 L 253.144531 78.28125 L 252.378906 76.789062 L 251.546875 75.292969 L 250.65625 73.796875 L 249.730469 72.304688 L 248.78125 70.808594 L 247.816406 69.3125 L 246.855469 67.816406 L 245.90625 66.324219 L 244.980469 64.828125 L 244.089844 63.332031 L 243.242188 61.839844 L 242.4375 60.34375 L 241.6875 58.847656 L 240.992188 57.355469 L 240.351562 55.859375 L 239.769531 54.363281 L 239.242188 52.867188 L 238.773438 51.375 L 238.355469 49.878906 L 237.988281 48.382812 L 237.667969 46.890625 L 237.386719 45.394531 L 237.148438 43.898438 L 236.945312 42.402344 L 236.769531 40.910156 L 236.625 39.414062 L 236.503906 37.917969 L 236.402344 36.425781 L 236.320312 34.929688 L 236.253906 33.433594 L 236.199219 31.9375 L 236.15625 30.445312 L 236.121094 28.949219 L 236.09375 27.453125 L 236.070312 25.960938 L 236.039062 22.96875 L 236.03125 21.476562 L 236.015625 18.484375 L 236.011719 16.988281 L 236.007812 15.496094 L 236.007812 14 L 236 13.753906 Z M 236 162 "/>
<path style="fill:none;stroke-width:0.75;stroke-linecap:round;stroke-linejoin:round;stroke:rgb(0%,0%,0%);stroke-opacity:1;stroke-miterlimit:10;" d="M 236.007812 162 L 236.007812 160.503906 L 236.011719 159.011719 L 236.015625 157.515625 L 236.03125 154.523438 L 236.039062 153.03125 L 236.070312 150.039062 L 236.09375 148.546875 L 236.121094 147.050781 L 236.15625 145.554688 L 236.199219 144.0625 L 236.253906 142.566406 L 236.320312 141.070312 L 236.402344 139.574219 L 236.503906 138.082031 L 236.625 136.585938 L 236.769531 135.089844 L 236.945312 133.597656 L 237.148438 132.101562 L 237.386719 130.605469 L 237.667969 129.109375 L 237.988281 127.617188 L 238.355469 126.121094 L 238.773438 124.625 L 239.242188 123.132812 L 239.769531 121.636719 L 240.351562 120.140625 L 240.992188 118.644531 L 241.6875 117.152344 L 242.4375 115.65625 L 243.242188 114.160156 L 244.089844 112.667969 L 244.980469 111.171875 L 245.90625 109.675781 L 246.855469 108.183594 L 247.816406 106.6875 L 248.78125 105.191406 L 249.730469 103.695312 L 250.65625 102.203125 L 251.546875 100.707031 L 252.378906 99.210938 L 253.144531 97.71875 L 253.832031 96.222656 L 254.421875 94.726562 L 254.910156 93.230469 L 255.285156 91.738281 L 255.535156 90.242188 L 255.664062 88.746094 L 255.664062 87.253906 L 255.535156 85.757812 L 255.285156 84.261719 L 254.910156 82.769531 L 254.421875 81.273438 L 253.832031 79.777344 L 253.144531 78.28125 L 252.378906 76.789062 L 251.546875 75.292969 L 250.65625 73.796875 L 249.730469 72.304688 L 248.78125 70.808594 L 247.816406 69.3125 L 246.855469 67.816406 L 245.90625 66.324219 L 244.980469 64.828125 L 244.089844 63.332031 L 243.242188 61.839844 L 242.4375 60.34375 L 241.6875 58.847656 L 240.992188 57.355469 L 240.351562 55.859375 L 239.769531 54.363281 L 239.242188 52.867188 L 238.773438 51.375 L 238.355469 49.878906 L 237.988281 48.382812 L 237.667969 46.890625 L 237.386719 45.394531 L 237.148438 43.898438 L 236.945312 42.402344 L 236.769531 40.910156 L 236.625 39.414062 L 236.503906 37.917969 L 236.402344 36.425781 L 236.320312 34.929688 L 236.253906 33.433594 L 236.199219 31.9375 L 236.15625 30.445312 L 236.121094 28.949219 L 236.09375 27.453125 L 236.070312 25.960938 L 236.039062 22.96875 L 236.03125 21.476562 L 236.015625 18.484375 L 236.011719 16.988281 L 236.007812 15.496094 L 236.007812 14 "/>
</g>
<g clip-path="url(#clip4)" clip-rule="nonzero">
<path style="fill-rule:nonzero;fill:rgb(0%,50.196078%,100%);fill-opacity:0.8;stroke-width:0.75;stroke-linecap:round;stroke-linejoin:round;stroke:rgb(0%,50.196078%,100%);stroke-opacity:0.8;stroke-miterlimit:10;" d="M 260.667969 137.578125 L 260.671875 137.332031 L 260.675781 135.839844 L 260.683594 132.847656 L 260.691406 131.355469 L 260.707031 128.363281 L 260.722656 126.867188 L 260.738281 125.375 L 260.757812 123.878906 L 260.789062 122.382812 L 260.824219 120.890625 L 260.867188 119.394531 L 260.921875 117.898438 L 260.988281 116.402344 L 261.070312 114.910156 L 261.171875 113.414062 L 261.292969 111.917969 L 261.4375 110.425781 L 261.609375 108.929688 L 261.816406 107.433594 L 262.054688 105.9375 L 262.332031 104.445312 L 262.652344 102.949219 L 263.023438 101.453125 L 263.441406 99.960938 L 263.910156 98.464844 L 264.433594 96.96875 L 265.019531 95.476562 L 265.65625 93.980469 L 266.351562 92.484375 L 267.105469 90.988281 L 267.90625 89.496094 L 268.757812 88 L 269.648438 86.503906 L 270.574219 85.011719 L 271.523438 83.515625 L 273.445312 80.523438 L 274.398438 79.03125 L 275.324219 77.535156 L 276.210938 76.039062 L 277.046875 74.546875 L 277.8125 73.050781 L 278.496094 71.554688 L 279.089844 70.0625 L 279.578125 68.566406 L 279.949219 67.070312 L 280.203125 65.574219 L 280.332031 64.082031 L 280.332031 62.585938 L 280.203125 61.089844 L 279.949219 59.597656 L 279.578125 58.101562 L 279.089844 56.605469 L 278.496094 55.109375 L 277.8125 53.617188 L 277.046875 52.121094 L 276.210938 50.625 L 275.324219 49.132812 L 274.398438 47.636719 L 273.445312 46.140625 L 272.484375 44.644531 L 271.523438 43.152344 L 270.574219 41.65625 L 269.648438 40.160156 L 268.757812 38.667969 L 267.90625 37.171875 L 267.105469 35.675781 L 266.351562 34.183594 L 265.65625 32.6875 L 265.019531 31.191406 L 264.433594 29.695312 L 263.910156 28.203125 L 263.441406 26.707031 L 263.023438 25.210938 L 262.652344 23.71875 L 262.332031 22.222656 L 262.054688 20.726562 L 261.816406 19.230469 L 261.609375 17.738281 L 261.4375 16.242188 L 261.292969 14.746094 L 261.171875 13.253906 L 261.070312 11.757812 L 260.988281 10.261719 L 260.921875 8.769531 L 260.867188 7.273438 L 260.824219 5.777344 L 260.789062 4.28125 L 260.757812 2.789062 L 260.738281 1.292969 L 260.722656 -0.203125 L 260.707031 -1.695312 L 260.683594 -6.183594 L 260.679688 -7.675781 L 260.671875 -10.667969 L 260.667969 -10.914062 Z M 260.667969 137.578125 "/>
<path style="fill:none;stroke-width:0.75;stroke-linecap:round;stroke-linejoin:round;stroke:rgb(0%,0%,0%);stroke-opacity:1;stroke-miterlimit:10;" d="M 260.671875 137.332031 L 260.675781 135.839844 L 260.683594 132.847656 L 260.691406 131.355469 L 260.707031 128.363281 L 260.722656 126.867188 L 260.738281 125.375 L 260.757812 123.878906 L 260.789062 122.382812 L 260.824219 120.890625 L 260.867188 119.394531 L 260.921875 117.898438 L 260.988281 116.402344 L 261.070312 114.910156 L 261.171875 113.414062 L 261.292969 111.917969 L 261.4375 110.425781 L 261.609375 108.929688 L 261.816406 107.433594 L 262.054688 105.9375 L 262.332031 104.445312 L 262.652344 102.949219 L 263.023438 101.453125 L 263.441406 99.960938 L 263.910156 98.464844 L 264.433594 96.96875 L 265.019531 95.476562 L 265.65625 93.980469 L 266.351562 92.484375 L 267.105469 90.988281 L 267.90625 89.496094 L 268.757812 88 L 269.648438 86.503906 L 270.574219 85.011719 L 271.523438 83.515625 L 273.445312 80.523438 L 274.398438 79.03125 L 275.324219 77.535156 L 276.210938 76.039062 L 277.046875 74.546875 L 277.8125 73.050781 L 278.496094 71.554688 L 279.089844 70.0625 L 279.578125 68.566406 L 279.949219 67.070312 L 280.203125 65.574219 L 280.332031 64.082031 L 280.332031 62.585938 L 280.203125 61.089844 L 279.949219 59.597656 L 279.578125 58.101562 L 279.089844 56.605469 L 278.496094 55.109375 L 277.8125 53.617188 L 277.046875 52.121094 L 276.210938 50.625 L 275.324219 49.132812 L 274.398438 47.636719 L 273.445312 46.140625 L 272.484375 44.644531 L 271.523438 43.152344 L 270.574219 41.65625 L 269.648438 40.160156 L 268.757812 38.667969 L 267.90625 37.171875 L 267.105469 35.675781 L 266.351562 34.183594 L 265.65625 32.6875 L 265.019531 31.191406 L 264.433594 29.695312 L 263.910156 28.203125 L 263.441406 26.707031 L 263.023438 25.210938 L 262.652344 23.71875 L 262.332031 22.222656 L 262.054688 20.726562 L 261.816406 19.230469 L 261.609375 17.738281 L 261.4375 16.242188 L 261.292969 14.746094 L 261.171875 13.253906 L 261.070312 11.757812 L 260.988281 10.261719 L 260.921875 8.769531 L 260.867188 7.273438 L 260.824219 5.777344 L 260.789062 4.28125 L 260.757812 2.789062 L 260.738281 1.292969 L 260.722656 -0.203125 L 260.707031 -1.695312 L 260.683594 -6.183594 L 260.679688 -7.675781 L 260.671875 -10.667969 "/>
</g>
<g clip-path="url(#clip5)" clip-rule="nonzero">
<path style="fill:none;stroke-width:0.75;stroke-linecap:round;stroke-linejoin:round;stroke:rgb(0%,0%,0%);stroke-opacity:1;stroke-dasharray:0.75,2.25;stroke-miterlimit:10;" d="M 28.800781 162 L 295.199219 162 "/>
</g>
<path style=" stroke:none;fill-rule:nonzero;fill:rgb(0%,0%,0%);fill-opacity:1;" d="M 163.691406 313.921875 L 161.988281 311.320312 L 160.269531 313.921875 L 159.132812 313.921875 L 161.390625 310.664062 L 159.238281 307.582031 L 160.40625 307.582031 L 161.988281 310.046875 L 163.558594 307.582031 L 164.734375 307.582031 L 162.585938 310.652344 L 164.871094 313.921875 Z M 163.691406 313.921875 "/>
<path style=" stroke:none;fill-rule:nonzero;fill:rgb(0%,0%,0%);fill-opacity:1;" d="M 18.71875 164.714844 L 17.917969 164.714844 L 13.195312 160.839844 L 13.195312 164.480469 L 12.378906 164.480469 L 12.378906 159.652344 L 13.183594 159.652344 L 17.90625 163.53125 L 17.90625 159.433594 L 18.71875 159.433594 Z M 18.71875 164.714844 "/>
<path style=" stroke:none;fill-rule:nonzero;fill:rgb(0%,0%,0%);fill-opacity:1;" d="M 53.882812 122.300781 L 53.996094 122.347656 L 54.109375 122.390625 L 54.21875 122.4375 L 54.324219 122.480469 L 54.429688 122.527344 L 54.53125 122.574219 L 54.726562 122.667969 L 54.820312 122.710938 L 54.914062 122.757812 L 55.09375 122.851562 L 55.179688 122.902344 L 55.34375 123.003906 L 55.417969 123.054688 L 55.566406 123.164062 L 55.699219 123.273438 L 55.824219 123.390625 L 55.882812 123.453125 L 55.9375 123.515625 L 55.988281 123.578125 L 56.035156 123.644531 L 56.082031 123.707031 L 56.121094 123.777344 L 56.160156 123.84375 L 56.230469 123.984375 L 56.261719 124.058594 L 56.285156 124.132812 L 56.308594 124.210938 L 56.328125 124.292969 L 56.34375 124.375 L 56.355469 124.457031 L 56.367188 124.542969 L 56.371094 124.632812 L 56.371094 124.914062 L 56.367188 124.949219 L 56.367188 125.023438 L 56.363281 125.058594 L 56.359375 125.089844 L 56.359375 125.125 L 56.34375 125.265625 L 56.335938 125.300781 L 56.332031 125.339844 L 56.316406 125.410156 L 56.308594 125.449219 L 55.515625 125.449219 L 55.53125 125.355469 L 55.53125 125.332031 L 55.535156 125.304688 L 55.535156 125.277344 L 55.539062 125.253906 L 55.539062 125.195312 L 55.546875 125.140625 L 55.546875 125.089844 L 55.550781 125.066406 L 55.550781 124.863281 L 55.539062 124.773438 L 55.523438 124.683594 L 55.496094 124.597656 L 55.464844 124.511719 L 55.429688 124.425781 L 55.382812 124.339844 L 55.332031 124.257812 L 55.273438 124.175781 L 55.207031 124.09375 L 55.132812 124.015625 L 55.050781 123.941406 L 54.960938 123.867188 L 54.863281 123.792969 L 54.757812 123.722656 L 54.644531 123.652344 L 54.523438 123.585938 L 54.390625 123.523438 L 54.253906 123.457031 L 54.105469 123.398438 L 53.851562 123.296875 L 47.542969 125.8125 L 47.542969 124.6875 L 51.046875 123.351562 L 51.078125 123.339844 L 51.113281 123.328125 L 51.152344 123.3125 L 51.191406 123.300781 L 51.230469 123.285156 L 51.273438 123.269531 L 51.367188 123.238281 L 51.417969 123.222656 L 51.46875 123.203125 L 51.523438 123.1875 L 51.574219 123.167969 L 51.628906 123.148438 L 51.679688 123.128906 L 51.734375 123.113281 L 51.785156 123.09375 L 51.839844 123.078125 L 51.890625 123.058594 L 51.945312 123.039062 L 51.996094 123.023438 L 52.046875 123.003906 L 52.097656 122.988281 L 52.148438 122.96875 L 52.199219 122.953125 L 52.246094 122.933594 L 52.339844 122.902344 L 52.382812 122.886719 L 52.429688 122.875 L 52.46875 122.859375 L 52.511719 122.84375 L 52.582031 122.820312 L 52.613281 122.8125 L 52.667969 122.796875 L 52.6875 122.789062 L 52.707031 122.785156 L 52.722656 122.78125 L 52.734375 122.777344 L 52.703125 122.769531 L 52.664062 122.753906 L 52.640625 122.746094 L 52.613281 122.738281 L 52.582031 122.730469 L 52.519531 122.707031 L 52.480469 122.695312 L 52.441406 122.679688 L 52.402344 122.667969 L 52.363281 122.652344 L 52.148438 122.574219 L 52.054688 122.542969 L 52.007812 122.523438 L 51.960938 122.507812 L 51.914062 122.488281 L 51.867188 122.472656 L 51.820312 122.453125 L 51.769531 122.4375 L 51.722656 122.417969 L 51.675781 122.402344 L 51.628906 122.382812 L 51.578125 122.367188 L 51.53125 122.347656 L 51.488281 122.332031 L 51.441406 122.316406 L 51.355469 122.285156 L 51.316406 122.273438 L 51.273438 122.257812 L 51.238281 122.246094 L 51.199219 122.230469 L 51.164062 122.21875 L 47.542969 120.976562 L 47.542969 119.863281 Z M 53.882812 122.300781 "/>
<path style=" stroke:none;fill-rule:nonzero;fill:rgb(0%,0%,0%);fill-opacity:1;" d="M 48.867188 115.921875 L 48 115.921875 L 48 110.089844 L 48.867188 110.089844 Z M 51.867188 115.921875 L 51 115.921875 L 51 110.089844 L 51.867188 110.089844 Z M 51.867188 115.921875 "/>
<path style=" stroke:none;fill-rule:nonzero;fill:rgb(0%,0%,0%);fill-opacity:1;" d="M 53.882812 105.25 L 52.984375 105.25 L 52.984375 103.148438 L 46.632812 103.148438 L 47.964844 105.011719 L 46.96875 105.011719 L 45.625 103.058594 L 45.625 102.085938 L 52.984375 102.085938 L 52.984375 100.078125 L 53.882812 100.078125 Z M 53.882812 105.25 "/>
<path style=" stroke:none;fill-rule:nonzero;fill:rgb(0%,0%,0%);fill-opacity:1;" d="M 53.945312 220.96875 L 54.058594 221.015625 L 54.167969 221.058594 L 54.277344 221.105469 L 54.386719 221.148438 L 54.589844 221.242188 L 54.691406 221.285156 L 54.789062 221.332031 L 54.976562 221.425781 L 55.15625 221.519531 L 55.242188 221.570312 L 55.324219 221.617188 L 55.402344 221.667969 L 55.480469 221.722656 L 55.554688 221.773438 L 55.625 221.828125 L 55.695312 221.886719 L 55.761719 221.941406 L 55.886719 222.058594 L 55.945312 222.121094 L 55.996094 222.183594 L 56.050781 222.246094 L 56.097656 222.308594 L 56.144531 222.375 L 56.183594 222.441406 L 56.222656 222.511719 L 56.292969 222.652344 L 56.347656 222.800781 L 56.371094 222.878906 L 56.390625 222.957031 L 56.40625 223.039062 L 56.417969 223.125 L 56.433594 223.296875 L 56.433594 223.542969 L 56.429688 223.582031 L 56.429688 223.652344 L 56.425781 223.6875 L 56.425781 223.722656 L 56.421875 223.757812 L 56.421875 223.792969 L 56.410156 223.898438 L 56.402344 223.933594 L 56.398438 223.96875 L 56.390625 224.003906 L 56.386719 224.042969 L 56.378906 224.078125 L 56.371094 224.117188 L 55.578125 224.117188 L 55.589844 224.046875 L 55.589844 224.023438 L 55.59375 223.996094 L 55.597656 223.972656 L 55.597656 223.945312 L 55.601562 223.917969 L 55.601562 223.863281 L 55.605469 223.835938 L 55.605469 223.808594 L 55.609375 223.78125 L 55.609375 223.734375 L 55.613281 223.710938 L 55.613281 223.625 L 55.609375 223.53125 L 55.601562 223.441406 L 55.582031 223.351562 L 55.558594 223.261719 L 55.527344 223.175781 L 55.488281 223.089844 L 55.445312 223.007812 L 55.394531 222.925781 L 55.335938 222.84375 L 55.269531 222.761719 L 55.195312 222.683594 L 55.113281 222.605469 L 55.023438 222.53125 L 54.925781 222.460938 L 54.820312 222.386719 L 54.707031 222.320312 L 54.582031 222.253906 L 54.453125 222.1875 L 54.3125 222.125 L 54.167969 222.066406 L 53.914062 221.964844 L 47.605469 224.480469 L 47.605469 223.355469 L 51.109375 222.019531 L 51.140625 222.007812 L 51.175781 221.992188 L 51.210938 221.980469 L 51.25 221.964844 L 51.292969 221.953125 L 51.335938 221.9375 L 51.429688 221.90625 L 51.480469 221.890625 L 51.582031 221.851562 L 51.636719 221.835938 L 51.6875 221.816406 L 51.742188 221.796875 L 51.792969 221.777344 L 51.847656 221.761719 L 51.898438 221.742188 L 51.953125 221.726562 L 52.003906 221.707031 L 52.058594 221.691406 L 52.160156 221.652344 L 52.210938 221.636719 L 52.261719 221.617188 L 52.402344 221.570312 L 52.488281 221.539062 L 52.53125 221.527344 L 52.574219 221.511719 L 52.644531 221.488281 L 52.675781 221.480469 L 52.703125 221.46875 L 52.726562 221.460938 L 52.75 221.457031 L 52.769531 221.449219 L 52.785156 221.445312 L 52.796875 221.445312 L 52.78125 221.441406 L 52.765625 221.433594 L 52.746094 221.429688 L 52.726562 221.421875 L 52.699219 221.414062 L 52.675781 221.40625 L 52.644531 221.394531 L 52.613281 221.386719 L 52.582031 221.375 L 52.542969 221.363281 L 52.464844 221.332031 L 52.425781 221.320312 L 52.253906 221.257812 L 52.207031 221.242188 L 52.164062 221.226562 L 52.117188 221.210938 L 52.070312 221.191406 L 52.023438 221.175781 L 51.976562 221.15625 L 51.929688 221.140625 L 51.878906 221.121094 L 51.832031 221.105469 L 51.785156 221.085938 L 51.738281 221.070312 L 51.691406 221.050781 L 51.640625 221.035156 L 51.59375 221.015625 L 51.546875 221 L 51.375 220.9375 L 51.335938 220.925781 L 51.296875 220.910156 L 51.226562 220.886719 L 47.605469 219.644531 L 47.605469 218.53125 Z M 53.945312 220.96875 "/>
<path style=" stroke:none;fill-rule:nonzero;fill:rgb(0%,0%,0%);fill-opacity:1;" d="M 48.929688 214.589844 L 48.0625 214.589844 L 48.0625 208.757812 L 48.929688 208.757812 Z M 51.929688 214.589844 L 51.0625 214.589844 L 51.0625 208.757812 L 51.929688 208.757812 Z M 51.929688 214.589844 "/>
<path style=" stroke:none;fill-rule:nonzero;fill:rgb(0%,0%,0%);fill-opacity:1;" d="M 49.8125 198.628906 L 50.046875 198.628906 L 50.273438 198.636719 L 50.492188 198.648438 L 50.703125 198.664062 L 50.910156 198.683594 L 51.105469 198.710938 L 51.296875 198.738281 L 51.476562 198.773438 L 51.652344 198.8125 L 51.816406 198.855469 L 51.976562 198.902344 L 52.128906 198.953125 L 52.273438 199.003906 L 52.414062 199.0625 L 52.550781 199.121094 L 52.679688 199.183594 L 52.800781 199.25 L 52.917969 199.320312 L 53.027344 199.394531 L 53.128906 199.472656 L 53.226562 199.550781 L 53.316406 199.632812 L 53.402344 199.714844 L 53.484375 199.804688 L 53.558594 199.894531 L 53.625 199.984375 L 53.6875 200.082031 L 53.746094 200.179688 L 53.796875 200.28125 L 53.84375 200.386719 L 53.886719 200.492188 L 53.921875 200.597656 L 53.957031 200.707031 L 53.984375 200.816406 L 54.007812 200.929688 L 54.027344 201.042969 L 54.042969 201.15625 L 54.054688 201.273438 L 54.058594 201.390625 L 54.0625 201.511719 L 54.058594 201.628906 L 54.054688 201.75 L 54.042969 201.863281 L 54.027344 201.980469 L 54.007812 202.09375 L 53.984375 202.203125 L 53.957031 202.316406 L 53.921875 202.421875 L 53.886719 202.53125 L 53.84375 202.636719 L 53.796875 202.738281 L 53.746094 202.839844 L 53.6875 202.9375 L 53.625 203.03125 L 53.558594 203.121094 L 53.484375 203.210938 L 53.402344 203.300781 L 53.316406 203.382812 L 53.226562 203.464844 L 53.128906 203.542969 L 53.027344 203.617188 L 52.917969 203.6875 L 52.804688 203.757812 L 52.683594 203.824219 L 52.554688 203.882812 L 52.421875 203.945312 L 52.28125 204 L 52.132812 204.050781 L 51.980469 204.101562 L 51.824219 204.148438 L 51.65625 204.1875 L 51.480469 204.226562 L 51.300781 204.257812 L 51.109375 204.285156 L 50.914062 204.308594 L 50.707031 204.328125 L 50.496094 204.34375 L 50.277344 204.355469 L 50.046875 204.363281 L 49.566406 204.363281 L 49.332031 204.355469 L 49.105469 204.34375 L 48.882812 204.328125 L 48.671875 204.308594 L 48.472656 204.285156 L 48.277344 204.257812 L 48.09375 204.226562 L 47.917969 204.1875 L 47.75 204.148438 L 47.589844 204.101562 L 47.4375 204.050781 L 47.289062 204 L 47.148438 203.941406 L 47.015625 203.882812 L 46.886719 203.820312 L 46.765625 203.753906 L 46.652344 203.6875 L 46.546875 203.613281 L 46.445312 203.539062 L 46.351562 203.457031 L 46.261719 203.378906 L 46.179688 203.292969 L 46.101562 203.207031 L 46.03125 203.117188 L 45.964844 203.023438 L 45.90625 202.925781 L 45.855469 202.828125 L 45.804688 202.726562 L 45.765625 202.625 L 45.726562 202.515625 L 45.691406 202.410156 L 45.664062 202.296875 L 45.636719 202.1875 L 45.617188 202.074219 L 45.597656 201.957031 L 45.582031 201.839844 L 45.566406 201.597656 L 45.566406 201.355469 L 45.574219 201.242188 L 45.582031 201.125 L 45.597656 201.015625 L 45.617188 200.902344 L 45.636719 200.792969 L 45.664062 200.683594 L 45.691406 200.578125 L 45.726562 200.472656 L 45.765625 200.367188 L 45.804688 200.265625 L 45.855469 200.164062 L 45.90625 200.066406 L 45.964844 199.972656 L 46.03125 199.878906 L 46.101562 199.789062 L 46.179688 199.703125 L 46.261719 199.621094 L 46.351562 199.539062 L 46.445312 199.460938 L 46.546875 199.382812 L 46.652344 199.3125 L 46.765625 199.242188 L 46.886719 199.175781 L 47.015625 199.113281 L 47.148438 199.054688 L 47.289062 199 L 47.4375 198.945312 L 47.589844 198.894531 L 47.75 198.851562 L 47.917969 198.808594 L 48.09375 198.769531 L 48.277344 198.738281 L 48.472656 198.707031 L 48.671875 198.683594 L 48.882812 198.664062 L 49.105469 198.648438 L 49.332031 198.636719 L 49.566406 198.628906 Z M 49.8125 199.699219 L 49.621094 199.699219 L 49.433594 199.703125 L 49.253906 199.710938 L 49.078125 199.71875 L 48.914062 199.730469 L 48.753906 199.742188 L 48.597656 199.757812 L 48.453125 199.773438 L 48.3125 199.792969 L 48.179688 199.816406 L 48.050781 199.839844 L 47.925781 199.867188 L 47.808594 199.898438 L 47.695312 199.929688 L 47.589844 199.960938 L 47.488281 199.996094 L 47.390625 200.035156 L 47.300781 200.074219 L 47.214844 200.117188 L 47.058594 200.210938 L 46.988281 200.257812 L 46.921875 200.308594 L 46.859375 200.363281 L 46.800781 200.417969 L 46.699219 200.535156 L 46.65625 200.59375 L 46.617188 200.660156 L 46.554688 200.792969 L 46.527344 200.859375 L 46.5 200.929688 L 46.460938 201.078125 L 46.445312 201.152344 L 46.4375 201.230469 L 46.425781 201.308594 L 46.421875 201.390625 L 46.421875 201.5625 L 46.425781 201.648438 L 46.4375 201.734375 L 46.445312 201.8125 L 46.460938 201.894531 L 46.480469 201.972656 L 46.5 202.046875 L 46.527344 202.121094 L 46.554688 202.191406 L 46.585938 202.261719 L 46.621094 202.328125 L 46.660156 202.390625 L 46.703125 202.453125 L 46.753906 202.515625 L 46.804688 202.574219 L 46.863281 202.628906 L 46.925781 202.683594 L 46.992188 202.738281 L 47.066406 202.785156 L 47.140625 202.835938 L 47.222656 202.878906 L 47.308594 202.921875 L 47.398438 202.960938 L 47.492188 203 L 47.59375 203.035156 L 47.703125 203.070312 L 47.816406 203.101562 L 47.933594 203.128906 L 48.054688 203.15625 L 48.183594 203.179688 L 48.316406 203.203125 L 48.457031 203.222656 L 48.605469 203.238281 L 48.757812 203.253906 L 48.917969 203.269531 L 49.082031 203.277344 L 49.433594 203.292969 L 49.621094 203.296875 L 50 203.296875 L 50.179688 203.292969 L 50.355469 203.285156 L 50.523438 203.277344 L 50.6875 203.269531 L 50.84375 203.253906 L 50.996094 203.238281 L 51.140625 203.222656 L 51.28125 203.203125 L 51.414062 203.179688 L 51.539062 203.15625 L 51.664062 203.125 L 51.78125 203.097656 L 51.894531 203.066406 L 52 203.03125 L 52.101562 202.996094 L 52.199219 202.957031 L 52.292969 202.914062 L 52.378906 202.875 L 52.460938 202.828125 L 52.539062 202.78125 L 52.679688 202.679688 L 52.742188 202.625 L 52.800781 202.570312 L 52.855469 202.511719 L 52.90625 202.453125 L 52.953125 202.390625 L 52.992188 202.324219 L 53.03125 202.261719 L 53.0625 202.191406 L 53.117188 202.050781 L 53.140625 201.976562 L 53.15625 201.902344 L 53.171875 201.824219 L 53.183594 201.746094 L 53.195312 201.664062 L 53.199219 201.582031 L 53.199219 201.414062 L 53.195312 201.335938 L 53.171875 201.179688 L 53.15625 201.101562 L 53.140625 201.027344 L 53.117188 200.957031 L 53.0625 200.816406 L 53.03125 200.75 L 52.953125 200.617188 L 52.90625 200.558594 L 52.855469 200.5 L 52.800781 200.441406 L 52.742188 200.386719 L 52.679688 200.332031 L 52.609375 200.28125 L 52.539062 200.234375 L 52.460938 200.1875 L 52.378906 200.140625 L 52.292969 200.097656 L 52.199219 200.054688 L 52.101562 200.015625 L 52 199.980469 L 51.894531 199.945312 L 51.78125 199.914062 L 51.664062 199.882812 L 51.414062 199.828125 L 51.28125 199.804688 L 51.140625 199.78125 L 50.996094 199.761719 L 50.84375 199.746094 L 50.6875 199.730469 L 50.523438 199.71875 L 50.355469 199.710938 L 50.179688 199.703125 L 50 199.699219 Z M 49.8125 199.699219 "/>
<path style="fill:none;stroke-width:0.75;stroke-linecap:round;stroke-linejoin:round;stroke:rgb(0%,0%,0%);stroke-opacity:1;stroke-miterlimit:10;" d="M 28.800781 295.199219 L 295.199219 295.199219 L 295.199219 28.800781 L 28.800781 28.800781 Z M 28.800781 295.199219 "/>
</g>
</svg>
